<svg viewBox="0 0 90.9 34.7" xmlns="http://www.w3.org/2000/svg">
  <path clip-rule="evenodd" d="M50.1 14.7c-1.8 0-3.8-.7-5.1-2.2l1.7-2c.9 1.1 2.4 1.7 3.6 1.7 1.1 0 2.1-.5 2.1-1.5s-1.2-1.5-2.5-1.9c-1.9-.7-4.3-1.6-4.3-4.5 0-3.1 2.6-4.2 4.8-4.2 1.7 0 3.3.7 4.3 1.9L53 3.7c-.7-.9-2-1.3-2.8-1.3-1 0-2 .6-2 1.7 0 1.3 1.4 1.7 2.8 2.2 1.9.6 4 1.3 4 4 .2 2.9-2.3 4.4-4.9 4.4m12.2-7.4c0 2.9 1.9 4.7 4.4 4.7 2.4 0 4.3-1.8 4.3-4.7s-1.9-4.7-4.3-4.7-4.4 1.9-4.4 4.7m11.5 0c0 4.2-3.1 7.3-7.1 7.3s-7.2-3.1-7.2-7.3S62.6 0 66.7 0c4 0 7.1 3.1 7.1 7.3m5.1-7h2.6L88 9.2V.3h2.8v14h-2.6l-6.5-8.8v8.8h-2.8zM5.6 34.7c-1.8 0-3.8-.7-5.1-2.2l1.7-2c.9 1.1 2.4 1.7 3.6 1.7 1.1 0 2.1-.5 2.1-1.5s-1.2-1.5-2.5-1.9c-2-.7-4.4-1.6-4.4-4.6S3.6 20 5.8 20c1.7 0 3.3.7 4.3 1.9l-1.6 1.8c-.7-.9-2-1.3-2.8-1.3-1 0-2 .6-2 1.7 0 1.3 1.4 1.7 2.8 2.2 1.9.6 4 1.3 4 4 .2 2.9-2.3 4.4-4.9 4.4m11.6-7.3c0 2.9 1.9 4.7 4.4 4.7 2.4 0 4.3-1.8 4.3-4.7s-1.9-4.7-4.3-4.7c-2.5-.1-4.4 1.8-4.4 4.7m11.5 0c0 4.2-3.1 7.3-7.1 7.3s-7.1-3.1-7.1-7.3 3.1-7.3 7.1-7.3c4-.1 7.1 3 7.1 7.3m4.4-7.1h2.6l6.5 8.9v-8.9H45v14h-2.6l-6.5-8.8v8.8h-2.8zm21 14.4c-1.8 0-3.8-.7-5.1-2.2l1.7-2c.9 1.1 2.4 1.7 3.6 1.7 1.1 0 2.1-.5 2.1-1.5s-1.2-1.5-2.5-1.9c-1.9-.7-4.3-1.6-4.3-4.5 0-3.1 2.6-4.2 4.8-4.2 1.7 0 3.3.7 4.3 1.9L57 23.7c-.7-.9-2-1.3-2.8-1.3-1 0-2 .6-2 1.7 0 1.3 1.4 1.7 2.8 2.2 1.9.6 4 1.3 4 4 .1 2.9-2.4 4.4-4.9 4.4m9.3-.3h2.8v-14h-2.8zm7.8-14.1h2.6l6.5 8.9v-8.9h2.8v14h-2.6L74 25.5v8.8h-2.8zm16.9 14.1h2.8v-14h-2.8zM16.8.3L14 9.5 11.2.3H8.6L5.8 9.5 3 .3H0l4.6 14h2.5l2.8-8.9 2.8 8.9h2.5l4.6-14h-3zm7.5 14.1h2.8V.4h-2.8zM32.7.3v14H41V12h-5.5V.3z" fill="#003644" fill-rule="evenodd"/>
</svg>
